<?xml version="1.0" standalone="no"?>
<!DOCTYPE svg PUBLIC "-//W3C//DTD SVG 1.1//EN" "http://www.w3.org/Graphics/SVG/1.1/DTD/svg11.dtd" >
<!--
2013-9-30: Created.
-->
<svg>
<metadata>
Created by iconfont
</metadata>
<defs>

<font id="iconfont" horiz-adv-x="1024" >
  <font-face
    font-family="iconfont"
    font-weight="500"
    font-stretch="normal"
    units-per-em="1024"
    ascent="896"
    descent="-128"
  />
    <missing-glyph />
    
    <glyph glyph-name="dianji" unicode="&#58881;" d="M775.779 477.828l-2.051 0c-15.159 0-27.6-4.355-39.583-11.771-10.486 30.584-37.159 52.615-71.513 52.615-15.16 0-29.638-4.354-41.62-11.77-10.487 30.583-37.172 52.615-71.527 52.615-13.399 0-25.85-3.357-36.873-9.255l0 78.691c0 42.861-32.418 77.606-75.59 77.606-43.173 0-78.17-34.745-78.17-77.606l0-301.282-47.49 47.295c-30.528 30.306-84.558 25.992-110.55 0s-43.038-78.308-5.818-115.528l218.306-216.875c4.504-4.471 9.455-8.2 14.663-11.353 39.803-32.47 85.412-51.692 181.857-51.692 220.324 0 240.728 118.865 240.728 265.492L850.548 400.223C850.547 443.083 818.952 477.828 775.779 477.828zM809.403 245.012c0-124.069-0.593-224.647-199.585-224.647-84.298 0-134.907 18.796-173.246 56.858L229.904 282.545c-18.285 18.285-13.687 41.664 1.282 56.633 14.968 14.968 42.441 15.486 56.902 1.131 0 0 36.259-36.045 67.498-67.1 23.641-23.502 44.408-44.145 44.408-44.145l0 391.72c0 20.302 16.578 36.76 37.028 36.76 20.449 0 34.448-16.459 34.448-36.76l0-249.154 0.415 0c-0.27-1.32-0.415-2.685-0.415-4.085 0-11.278 9.21-20.423 20.571-20.423 11.36 0 20.57 9.144 20.57 20.423 0 1.4-0.144 2.765-0.415 4.085l0.415 0L512.611 473.743c0 20.302 14.795 36.761 35.245 36.761 0 0 36.232 0.49 36.232-36.761l0-134.787 0.415 0c-0.27-1.321-0.415-2.686-0.415-4.085 0-11.279 9.21-20.423 20.57-20.423 11.361 0 20.571 9.143 20.571 20.423 0 1.399-0.144 2.764-0.415 4.085l0.415 0 0 93.942c0 20.303 14.559 36.762 35.01 36.762 0 0 36.983-2.303 36.983-36.762l0-118.449 0.415 0c-0.269-1.32-0.415-2.686-0.415-4.085 0-11.279 9.21-20.423 20.571-20.423s20.055 9.143 20.055 20.423c0 1.399-0.136 2.765-0.392 4.085l0.392 0 0 80.872c0 20.302 15.255 36.761 35.704 36.761 0 0 35.851 1.45 35.851-36.761C809.403 395.321 809.403 278.046 809.403 245.012zM328.307 513.245l0 68.631c-6.531 14.641-10.24 30.817-10.24 47.884 0 65.037 52.723 117.76 117.76 117.76s117.76-52.723 117.76-117.76c0-8.884-1.05-17.509-2.935-25.82 14.812-0.578 28.176-6.726 37.904-16.597 3.771 13.518 5.99 27.685 5.99 42.417 0 87.658-71.062 158.72-158.72 158.72s-158.72-71.062-158.72-158.72C277.107 583.64 296.898 542.245 328.307 513.245z"  horiz-adv-x="1024" />

    
    <glyph glyph-name="dianjitubiao" unicode="&#58995;" d="M907.994 190.471 452.431 457.699c-16.615 9.745-27.318 2.299-23.785-16.547l96.876-516.775c3.533-18.847 15.504-21.436 26.602-5.754 0 0 61.894 87.469 112.647 140.864l97.392-142.992c9.287-13.637 28.045-17.195 41.682-7.907l32.688 22.264c13.637 9.288 17.195 28.046 7.906 41.683l-97.323 142.893c65.055 26.608 157.017 49.021 157.017 49.021C922.869 169.014 924.608 180.724 907.994 190.471zM930.803 305.301c-0.07 1.87-0.279 3.702-0.596 5.495 0.195-2.322 0.391-4.644 0.547-6.972l0.064 0.368C930.815 304.56 930.819 304.928 930.803 305.301zM849.873 302.214c0.07-1.861 0.285-3.683 0.596-5.468-0.166 2.728-0.369 5.45-0.6 8.166C849.844 304.018 849.838 303.12 849.873 302.214zM382.324-118.789c-2.102 0.706-4.201 1.416-6.289 2.157C378.05-117.518 380.153-118.239 382.324-118.789zM427.972-29.491c-1.79 0.585-3.657 1.002-5.58 1.242-157.244 36.35-271.025 178.612-269.189 342.926 2.144 191.876 159.991 346.234 351.867 344.09 181.581-2.029 329.562-143.504 343.099-321.3-0.004-0.177-0.016-0.352-0.02-0.529-0.02-1.792 0.127-3.544 0.408-5.253 1.842-11.209 9.871-20.361 20.504-23.772 1.793-0.412 3.592-0.8 5.391-1.188 0.4-0.051 0.805-0.085 1.209-0.121 0.752-0.067 1.508-0.117 2.277-0.125 0.791-0.009 1.572 0.023 2.35 0.074 15.551 1.026 27.932 13.868 28.107 29.712 0.002 0.146-0.012 0.289-0.012 0.435-0.004 1.313-0.098 2.603-0.266 3.871-3.078 42.993-12.873 84.849-29.26 124.829-20.008 48.814-48.932 92.77-85.973 130.647-37.039 37.876-80.338 67.776-128.693 88.869C614.114 706.76 560.803 718.148 505.74 718.763c-55.063 0.616-108.615-9.579-159.17-30.298-48.814-20.007-92.771-48.932-130.646-85.971-37.876-37.04-67.777-80.338-88.869-128.693-21.845-50.079-33.232-103.39-33.848-158.453-1.117-99.907 34.294-196.448 99.71-271.842 56.922-65.604 132.797-111.06 216.479-130.325 1.732-0.555 3.536-0.952 5.39-1.188 1.143-0.145 2.305-0.233 3.485-0.246 16.637-0.186 30.274 13.149 30.46 29.786C448.881-44.98 440.146-33.468 427.972-29.491z"  horiz-adv-x="1024" />

    
    <glyph glyph-name="dianji1" unicode="&#58965;" d="M455.68 491.968l91.264-529.152c0 0 67.456 69.44 123.136 117.888l122.432-163.904c4.928-6.656 15.68-7.104 23.872-1.088l52.288 38.208c8.256 6.016 10.944 16.32 5.952 22.976l-119.104 159.424c62.208 25.088 164.672 53.632 164.672 53.632L455.68 491.968zM308.352 247.616l-135.872-99.328c-20.544-15.04-24.256-43.968-8-65.408 16.256-21.376 46.272-27.008 66.752-12.032l135.872 99.328c20.992 15.36 24.512 45.504 8.256 66.88C359.168 258.496 329.344 262.976 308.352 247.616zM949.696 657.024c-16.256 21.376-45.632 26.176-67.072 10.496l-134.912-98.688c-21.44-15.68-25.152-44.672-8.896-66.048 16.256-21.376 46.272-27.008 67.712-11.328l134.912 98.688C962.88 605.824 965.952 635.648 949.696 657.024zM319.296 759.168c-15.936 20.928-45.248 25.728-66.752 10.048-20.096-14.72-24.256-43.968-8.32-64.896l105.536-138.816c15.936-20.992 45.696-25.408 65.792-10.688 21.44 15.68 25.216 44.608 9.28 65.6L319.296 759.168zM585.792 594.24c26.176-4.224 50.24 13.376 53.632 39.232l21.184 167.808c3.392 25.792-14.976 49.984-41.536 54.656-26.176 4.224-50.24-13.376-53.632-39.168l-21.248-167.872C540.928 623.04 559.296 598.912 585.792 594.24zM329.728 406.976c2.56 25.92-15.808 50.048-41.536 54.656l-170.048 27.968c-27.072 3.584-50.688-13.696-53.632-39.232-3.904-26.944 14.464-51.072 41.536-54.656l170.048-27.968C301.824 363.264 325.504 380.544 329.728 406.976z"  horiz-adv-x="1024" />

    
    <glyph glyph-name="dianji2" unicode="&#58988;" d="M455.68 491.968l91.264-529.152c0 0 67.456 69.44 123.136 117.888l122.432-163.904c4.928-6.656 15.68-7.104 23.872-1.088l52.288 38.208c8.256 6.016 10.944 16.32 5.952 22.976l-119.104 159.424c62.208 25.088 164.672 53.632 164.672 53.632L455.68 491.968zM308.352 247.616l-135.872-99.328c-20.544-15.04-24.256-43.968-8-65.408 16.256-21.376 46.272-27.008 66.752-12.032l135.872 99.328c20.992 15.36 24.512 45.504 8.256 66.88C359.168 258.496 329.344 262.976 308.352 247.616zM949.696 657.024c-16.256 21.376-45.632 26.176-67.072 10.496l-134.912-98.688c-21.44-15.68-25.152-44.672-8.896-66.048 16.256-21.376 46.272-27.008 67.712-11.328l134.912 98.688C962.88 605.824 965.952 635.648 949.696 657.024zM319.296 759.168c-15.936 20.928-45.248 25.728-66.752 10.048-20.096-14.72-24.256-43.968-8.32-64.896l105.536-138.816c15.936-20.992 45.696-25.408 65.792-10.688 21.44 15.68 25.216 44.608 9.28 65.6L319.296 759.168zM585.792 594.24c26.176-4.224 50.24 13.376 53.632 39.232l21.184 167.808c3.392 25.792-14.976 49.984-41.536 54.656-26.176 4.224-50.24-13.376-53.632-39.168l-21.248-167.872C540.928 623.04 559.296 598.912 585.792 594.24zM329.728 406.976c2.56 25.92-15.808 50.048-41.536 54.656l-170.048 27.968c-27.072 3.584-50.688-13.696-53.632-39.232-3.904-26.944 14.464-51.072 41.536-54.656l170.048-27.968C301.824 363.264 325.504 380.544 329.728 406.976z"  horiz-adv-x="1024" />

    
    <glyph glyph-name="dianji3" unicode="&#59033;" d="M945.121192 258.244806 454.594569 545.98232c-17.889871 10.492886-29.411059 2.473723-25.610036-17.819918l104.309078-556.428941c3.806419-20.296239 16.69568-23.085348 28.647577-6.201795 0 0 66.644615 94.182944 121.289366 151.68076l104.863702-153.969209c10.003218-14.681046 30.202523-18.514447 44.884368-8.511229l35.192939 23.96775c14.687042 10.003218 18.520443 30.203522 8.517225 44.884368l-104.79375 153.861282c70.047308 28.646578 169.064974 52.782014 169.064974 52.782014C961.137333 235.142469 963.011062 247.75192 945.121192 258.244806zM428.263022 21.403984c-1.927293 0.629573-3.940928 1.07727-6.008526 1.335095-169.317803 39.139463-291.82934 192.317209-289.848283 369.24765 2.304438 206.597327 172.268202 372.800841 378.868127 370.493805 195.515041-2.185918 354.851411-154.517837 369.430526-345.955042-0.004997-0.193869-0.020986-0.382141-0.020986-0.570613-0.021985-1.93269 0.133909-3.816812 0.440701-5.658164 1.981656-12.070216 10.627794-21.922537 22.074034-25.599643 1.93269-0.441701 3.865379-0.861416 5.803066-1.276135 0.430708-0.053564 0.872409-0.091538 1.303116-0.128913 0.807453-0.069953 1.625898-0.123916 2.455335-0.134909 0.850423-0.010393 1.689854 0.021585 2.530284 0.075549 16.742648 1.109248 30.072611 14.934275 30.261483 31.995707 0.004997 0.155894-0.015989 0.312388-0.015989 0.468283 0 1.410644-0.101931 2.799702-0.27981 4.167175-3.316751 46.294412-13.8636 91.361257-31.505439 134.40947-21.546392 52.561164-52.691275 99.889475-92.573035 140.673823-39.882759 40.78175-86.506149 72.976322-138.571648 95.687924-53.918243 23.521452-111.324322 35.782739-170.609926 36.44469-59.291201 0.664949-116.950508-10.312408-171.385401-32.622282-52.561164-21.542794-99.889475-52.687678-140.670825-92.567439-40.787146-39.882759-72.981918-86.505549-95.690322-138.571648-23.521452-53.92324-35.780141-111.324322-36.447688-170.609926-1.200586-107.577862 36.926964-211.525985 107.362009-292.707744 61.293843-70.638907 142.991652-119.582723 233.093363-140.326459 1.862737-0.597595 3.812015-1.022307 5.803665-1.281131 1.233164-0.150898 2.481717-0.247832 3.752456-0.257825 17.911856-0.204861 32.598298 14.153204 32.797763 32.06526C450.77216 4.725292 441.367137 17.118889 428.263022 21.403984z"  horiz-adv-x="1024" />

    
    <glyph glyph-name="dianji4" unicode="&#59034;" d="M465.594 472.963l75.2-436.008c0 0 55.582 57.217 101.461 97.137l100.881-135.053c4.060-5.484 12.92-5.854 19.67-0.896l43.084 31.482c6.802 4.958 9.018 13.447 4.904 18.932l-98.138 131.362c51.258 20.672 135.685 44.192 135.685 44.192l-382.746 248.854zM344.2 271.623l-111.955-81.844c-16.928-12.393-19.987-36.229-6.592-53.894 13.394-17.614 38.127-22.254 55.002-9.914l111.955 81.844c17.297 12.656 20.198 37.494 6.803 55.107-13.342 17.666-37.916 21.357-55.213 8.701zM872.651 608.965c-13.395 17.613-37.599 21.568-55.266 8.648l-111.164-81.316c-17.666-12.92-20.724-36.808-7.33-54.422s38.127-22.253 55.793-9.334l111.164 81.316c17.666 12.92 20.197 37.494 6.803 55.107zM353.217 693.129c-13.131 17.244-37.283 21.2-55.002 8.279-16.558-12.129-19.987-36.229-6.856-53.472l86.959-114.381c13.131-17.297 37.653-20.935 54.211-8.807 17.666 12.92 20.777 36.756 7.646 54.053l-86.959 114.328zM572.802 557.232c21.568-3.481 41.396 11.021 44.192 32.326l17.455 138.27c2.795 21.252-12.339 41.185-34.224 45.036-21.568 3.48-41.396-11.021-44.191-32.273l-17.508-138.322c-2.69-21.305 12.445-41.185 34.278-45.035zM361.812 402.932c2.109 21.357-13.026 41.239-34.224 45.036l-140.115 23.045c-22.307 2.953-41.766-11.286-44.191-32.326-3.217-22.201 11.917-42.082 34.224-45.036l140.115-23.045c21.2-3.692 40.711 10.547 44.192 32.326z"  horiz-adv-x="1024" />

    
    <glyph glyph-name="jichutubiao_Click" unicode="&#58952;" d="M428.8-89.6c-44.8 32-83.2 108.8-102.4 153.6-12.8 38.4-12.8 70.4 0 83.2 19.2 19.2 44.8 12.8 70.4 12.8h19.2v70.4c0 70.4 0 211.2 64 211.2 12.8 6.4 32 0 38.4-12.8 32-32 32-140.8 38.4-204.8v-38.4c6.4 6.4 19.2 19.2 44.8 19.2 19.2 0 32-12.8 44.8-19.2 6.4 0 6.4-6.4 12.8-6.4 0 0 6.4 6.4 12.8 6.4 12.8 6.4 44.8 25.6 76.8-6.4 25.6-25.6 25.6-96 6.4-147.2-19.2-64-57.6-102.4-96-121.6h-6.4l-128-6.4c-12.8 0-32 0-57.6-6.4-12.8 0-25.6 6.4-38.4 12.8z m57.6 486.4c-25.6 0-19.2-134.4-19.2-166.4 6.4-64 6.4-115.2-32-121.6h-44.8c-6.4 0-25.6 6.4-25.6 0s19.2-64 51.2-115.2c25.6-38.4 44.8-51.2 51.2-51.2l51.2 6.4h128c25.6 12.8 51.2 38.4 64 83.2 12.8 57.6 6.4 102.4 0 108.8-6.4 0-12.8 0-19.2-6.4-6.4-6.4-19.2-6.4-32-12.8-19.2 0-32 12.8-44.8 19.2 0 0-6.4 6.4-12.8 6.4s-12.8-6.4-19.2-12.8c0 6.4-12.8-6.4-38.4-6.4-32 0-32 38.4-32 96-6.4 38.4-6.4 153.6-25.6 172.8zM339.2 364.8c-64 83.2-44.8 192 32 249.6 38.4 25.6 83.2 38.4 128 32 44.8-12.8 89.6-32 115.2-70.4 38.4-51.2 44.8-121.6 12.8-185.6-6.4-12.8-19.2-19.2-32-12.8-12.8 6.4-19.2 25.6-12.8 38.4 19.2 44.8 19.2 89.6-12.8 128-12.8 25.6-44.8 44.8-76.8 44.8-32 6.4-64-6.4-89.6-25.6-51.2-38.4-64-115.2-25.6-166.4 12.8-12.8 6.4-25.6-6.4-38.4-6.4-6.4-19.2-6.4-32 6.4zM825.6 358.4s6.4 6.4 6.4 12.8c51.2 134.4 12.8 288-83.2 390.4C614.4 896 403.2 908.8 256 800c0-6.4-6.4-6.4-6.4-6.4l-6.4-6.4c-64-51.2-108.8-121.6-128-198.4-25.6-102.4-6.4-204.8 44.8-288 0-6.4 6.4-6.4 6.4-6.4 12.8-19.2 25.6-38.4 44.8-57.6 12.8-6.4 25.6-6.4 38.4 0 12.8 12.8 12.8 32 0 44.8-51.2 57.6-83.2 134.4-83.2 217.6 0 83.2 32 160 89.6 217.6 6.4 6.4 19.2 12.8 25.6 19.2 6.4 6.4 19.2 12.8 25.6 19.2 76.8 51.2 160 64 243.2 44.8 83.2-19.2 147.2-70.4 192-140.8 64-102.4 57.6-230.4-6.4-332.8-6.4-12.8-6.4-32 6.4-44.8 12.8-6.4 32-6.4 44.8 6.4 12.8 25.6 25.6 51.2 38.4 70.4z"  horiz-adv-x="1024" />

    
    <glyph glyph-name="kaishishijian" unicode="&#58907;" d="M288.191 201.077c-9.489 0-18.978 5.271-23.722 14.761-8.962 18.45-16.869 37.955-23.195 57.46-4.745 13.706 3.163 28.466 16.869 33.211 13.706 4.745 28.466-3.163 33.211-16.869 5.798-16.869 12.652-34.266 20.559-50.08 6.326-13.179 1.054-28.993-11.598-35.319-4.218-2.109-8.434-3.163-12.125-3.163zM641.913-18.22c-59.041 0-116.501 12.125-170.271 35.846-51.661 23.195-98.051 55.351-137.06 96.996-10.016 10.543-9.489 27.412 1.054 37.428 10.543 10.016 27.412 9.489 37.428-1.054 34.266-36.373 74.329-64.841 119.664-84.873 46.917-21.086 96.996-31.63 148.658-31.63 98.578 0 190.83 38.482 260.942 108.067 69.585 69.585 108.067 162.364 108.067 260.942s-38.482 190.83-108.067 260.942c-69.585 69.057-162.364 107.54-260.415 107.54-98.578 0-190.83-38.482-260.942-108.067-69.585-69.585-108.067-162.364-108.067-260.942 0-14.761-11.598-26.357-26.357-26.357-14.761 0-26.357 11.598-26.357 26.357 0 56.933 11.07 112.284 33.211 163.946 21.086 50.08 51.661 95.415 90.144 133.898s83.818 69.057 133.898 90.144c52.189 22.141 107.012 33.211 163.946 33.211 56.933 0 112.284-11.07 163.946-33.211 50.08-21.086 95.415-51.661 133.898-90.144 38.482-38.482 69.057-83.818 90.144-133.898 22.141-52.189 33.211-107.012 33.211-163.946 0-56.933-11.07-112.284-33.211-163.946-21.086-50.08-51.661-95.415-90.144-133.898-38.482-38.482-83.818-69.057-133.898-90.144-51.661-22.141-106.485-33.211-163.419-33.211zM521.194 195.806c-4.745 0-8.962 1.054-13.179 3.69-7.907 4.745-13.179 13.179-13.179 22.668V584.32c0 9.489 5.271 17.923 13.179 22.668 8.434 4.745 18.45 4.745 26.357 0L848.03 425.646c7.907-4.745 13.179-13.179 13.179-22.668s-5.271-17.923-13.179-22.668L534.372 198.968c-3.69-2.109-8.434-3.163-13.179-3.163z"  horiz-adv-x="1280" />

    
    <glyph glyph-name="chufa" unicode="&#58933;" d="M644.921895 195.190154L595.29728 37.415385a39.424 39.424 0 0 0-74.948923-0.630154L375.924972 470.055385a39.581538 39.581538 0 0 0 9.491693 40.211692 39.620923 39.620923 0 0 0 40.408615 9.531077l433.230769-144.423385a39.384615 39.384615 0 0 0-0.630154-74.948923l-157.774769-49.585231 291.958154-291.918769a39.384615 39.384615 0 0 0-55.729231-55.729231l-291.958154 291.997539z m-87.197538-145.880616l69.080615 219.687385 31.035077 9.688615 188.770462 59.313231L413.340357 482.461538l144.344615-433.152z m-82.077539 370.884924l81.014154-243.081847 32.610462 103.699693a39.384615 39.384615 0 0 0 25.718154 25.757538l103.739077 32.610462-243.081847 81.014154z m312.91077-100.352l-161.713231-50.806154-69.080615-219.766154-144.423385 433.230769 433.230769-144.423385-58.013538-18.235076zM433.032665 49.230769C204.995742 49.230769 19.494203 234.732308 19.494203 462.769231S204.995742 876.307692 433.032665 876.307692 846.571126 690.806154 846.571126 462.769231a39.384615 39.384615 0 0 0-78.769231 0c0 184.556308-150.173538 334.769231-334.76923 334.769231C248.436972 797.538462 98.263434 647.325538 98.263434 462.769231s150.173538-334.769231 334.769231-334.769231a39.384615 39.384615 0 0 0 0-78.769231z m0 39.384616C226.696665 88.615385 58.878818 256.472615 58.878818 462.769231s167.817846 374.153846 374.153847 374.153846S807.186511 669.065846 807.186511 462.769231c0 206.296615-167.857231 374.153846-374.153846 374.153846S58.878818 669.065846 58.878818 462.769231s167.857231-374.153846 374.153847-374.153846z"  horiz-adv-x="1024" />

    
    <glyph glyph-name="zanting" unicode="&#58880;" d="M910.8 592.4c-5.4 10.5-16.3 17.8-28.9 17.8-17.8 0-32.2-14.4-32.2-32.1 0-6 1.7-11.7 4.6-16.5l-0.1-0.1c26.9-52.4 42.1-111.8 42.1-174.7 0-211.6-171.6-383.2-383.2-383.2S129.8 175.2 129.8 386.8 301.4 769.9 513 769.9c62.5 0 121.5-15 173.6-41.5l0.2 0.4c4.6-2.6 10-4.1 15.7-4.1 17.8 0 32.2 14.4 32.2 32.1 0 13.1-7.9 24.4-19.3 29.4C654.6 817.1 585.9 834.5 513 834.5 265.7 834.5 65.3 634 65.3 386.8S265.7-60.9 513-60.9s447.7 200.4 447.7 447.7c0 74.1-18 144-49.9 205.6zM385.4 543.8V224c0-17.5 14.3-31.9 31.9-31.9 17.6 0 32 14.4 31.9 31.9V543.8c0 17.5-14.3 31.9-31.9 31.9-17.5 0-31.9-14.3-31.9-31.9zM578.9 543.8V224c0-17.5 14.3-31.9 31.9-31.9 17.5 0 31.9 14.4 31.9 31.9V543.8c0 17.5-14.3 31.9-31.9 31.9-17.5 0-31.9-14.3-31.9-31.9zM772.7 678.3a32.2 32.1 0 1 1 64.4 0 32.2 32.1 0 1 1-64.4 0Z"  horiz-adv-x="1024" />

    
    <glyph glyph-name="point" unicode="&#58895;" d="M468.114286 274.285714c7.314286-21.942857 21.942857-36.571429 43.885714-36.571428s36.571429 14.628571 43.885714 36.571428L585.142857 676.571429c0 43.885714-36.571429 73.142857-73.142857 73.142857-43.885714 0-73.142857-36.571429-73.142857-80.457143l29.257143-394.971429zM512 164.57142899999997c-43.885714 0-73.142857-29.257143-73.142857-73.142858s29.257143-73.142857 73.142857-73.142857 73.142857 29.257143 73.142857 73.142857-29.257143 73.142857-73.142857 73.142858z"  horiz-adv-x="1024" />

    
    <glyph glyph-name="autosave" unicode="&#60172;" d="M784 736H672v-224h-288V736H160v-704h128v288h448v-288h128V656zM576 544h64V704h-64v-160z m310.624 134.624l-80 80A31.904 31.904 0 0 1 784 768H160a32 32 0 0 1-32-32v-704a32 32 0 0 1 32-32h361.952l-51.904-51.872 22.624-22.624 90.496 90.496-90.496 90.496-22.624-22.624L521.952 32H288v288h448v-320h128a32 32 0 0 1 32 32V656a31.872 31.872 0 0 1-9.376 22.624zM384 736h288v-224h-288V736z m480-704h-96v288a32 32 0 0 1-32 32H288a32 32 0 0 1-32-32v-288H160V736h192v-224a32 32 0 0 1 32-32h288a32 32 0 0 1 32 32V736h80L864 656V32z"  horiz-adv-x="1024" />

    
    <glyph glyph-name="trash" unicode="&#58908;" d="M959.36 677.792A95.68 95.68 0 0 1 864 767.904h-96V799.968a96 96 0 0 1-96 96H352a96 96 0 0 1-96-96v-32.032H160a95.68 95.68 0 0 1-95.392-90.112H64v-69.856a64 64 0 0 1 64-64v-544a128 128 0 0 1 128-128h512a128 128 0 0 1 128 128v544a64 64 0 0 1 64 64V677.792h-0.64zM320 799.936a32 32 0 0 0 32 32h320a32 32 0 0 0 32-32v-32H320v32z m512-800c0-35.264-28.736-64-64-64H256c-35.296 0-64 28.736-64 64v544h640v-544z m64 640.032v-32H128V671.936a32 32 0 0 0 32 32h704a32 32 0 0 0 32-32v-31.968zM288-0.19200000000000728h64a32 32 0 0 1 32 32v416a32 32 0 0 1-32 32H288a32 32 0 0 1-32-32v-416a32 32 0 0 1 32-32z m0 448.032h64v-416H288v416zM480-0.19200000000000728h64a32 32 0 0 1 32 32v416a32 32 0 0 1-32 32h-64a32 32 0 0 1-32-32v-416a32 32 0 0 1 32-32z m0 448.032h64v-416h-64v416zM672-0.19200000000000728h64a32 32 0 0 1 32 32v416a32 32 0 0 1-32 32h-64a32 32 0 0 1-32-32v-416a32 32 0 0 1 32-32z m0 448.032h64v-416h-64v416z"  horiz-adv-x="1024" />

    
    <glyph glyph-name="dianjichufa-" unicode="&#58909;" d="M634.4704-119.9616l95.5904 224.9728 228.8128-214.5792 52.3264 55.9104-228.9152 214.5792 218.4704 109.9264L429.9264 445.0304l204.544-564.992zM485.0176 666.9824a49.7664 49.7664 0 1 0-99.584 0V795.0336A49.664 49.664 0 0 0 435.3024 844.8a49.664 49.664 0 0 0 49.7152-49.7664v-128.0512z m-194.6112-41.1648a49.7664 49.7664 0 1 0-70.4-70.4L129.4848 645.9904A49.7152 49.7152 0 1 0 199.8848 716.288l90.5216-90.4704z m271.6672 18.8416a49.92 49.92 0 0 1 0-70.4512 49.92 49.92 0 0 1 70.4512 0l90.4192 90.5728a49.7664 49.7664 0 0 1-70.2976 70.4l-90.5728-90.5216z m-367.3088-173.568a49.7152 49.7152 0 1 0 0-99.5328l-128.0512 0.0512a49.664 49.664 0 1 0 0 99.4816h128.0512z m59.8528-173.1584a49.664 49.664 0 0 0 70.4-0.1536 49.664 49.664 0 0 0 0.0512-70.2976L234.496 137.0112a49.7664 49.7664 0 1 0-70.4 70.4l90.5216 90.5216z m0 0"  horiz-adv-x="1024" />

    
    <glyph glyph-name="chufaliucheng" unicode="&#58906;" d="M913.066667 34.133333l-243.2 243.2 132.266666 42.666667c8.533333 4.266667 17.066667 12.8 21.333334 21.333333 4.266667 17.066667-4.266667 34.133333-21.333334 42.666667l-358.4 119.466667c-12.8 4.266667-25.6 0-34.133333-8.533334-12.8-12.8-17.066667-25.6-12.8-38.4l119.466667-358.4c4.266667-8.533333 12.8-17.066667 21.333333-21.333333 17.066667-4.266667 34.133333 4.266667 42.666667 21.333333l42.666666 132.266667 243.2-243.2c12.8-12.8 34.133333-12.8 46.933334 0 12.8 12.8 12.8 34.133333 0 46.933333zM443.733333 174.933333c-153.6 0-277.333333 123.733333-277.333333 277.333334s123.733333 277.333333 277.333333 277.333333 277.333333-123.733333 277.333334-277.333333c0-17.066667 12.8-34.133333 34.133333-34.133334 17.066667 0 34.133333 12.8 34.133333 34.133334 0 187.733333-153.6 345.6-345.6 345.6-187.733333-4.266667-341.333333-157.866667-341.333333-345.6 0-187.733333 153.6-345.6 345.6-345.6 17.066667 0 34.133333 12.8 34.133333 34.133333-4.266667 17.066667-17.066667 34.133333-38.4 34.133333z m0-34.133333c-21.333333 0-42.666667 4.266667-64 4.266667 25.6-4.266667 42.666667-4.266667 64-4.266667z"  horiz-adv-x="1024" />

    
    <glyph glyph-name="gantanhao" unicode="&#58924;" d="M831.34464 690.61632c93.00992-98.16576 135.53664-230.12352 120.3968-364.21632-12.75904-113.03424-74.56256-216.3712-161.18784-288.36864-183.59296-152.61696-460.84608-120.09984-615.6544 55.76192C38.88128 248.2944 35.62496 481.50016 153.93792 646.3232c131.89632 183.74656 390.61504 230.85056 583.66464 118.66112 28.60032-16.62464 54.35904 27.63264 25.84064 44.2112C542.07488 937.84064 260.87936 876.53888 109.72672 672.16384c-140.20096-189.57312-116.15232-459.25888 42.39872-629.4272 160.21504-171.93984 429.34272-201.39008 626.21696-76.416 208.61952 132.43904 282.14272 403.5584 181.41696 626.432-22.4256 49.60768-54.86592 94.64832-92.21632 134.06208-22.74304 24.01792-58.89536-12.25216-36.1984-36.1984zM512.63488 643.6864v-361.82016M487.03488 643.6864v-361.82016c0-33.01376 51.2-33.01376 51.2 0V643.6864c-0.00512 33.01376-51.2 33.01376-51.2 0zM512.64 125.53728c39.62368 0 39.62368 61.44 0 61.44-39.61856 0-39.61856-61.44 0-61.44z"  horiz-adv-x="1024" />

    
    <glyph glyph-name="tianjiacopy" unicode="&#58886;" d="M512-53.333333C270.506667-53.333333 74.666667 142.506667 74.666667 384S270.506667 821.333333 512 821.333333 949.333333 625.493333 949.333333 384 753.493333-53.333333 512-53.333333z m0 106.666666a330.666667 330.666667 0 1 1 0 661.333334 330.666667 330.666667 0 0 1 0-661.333334zM341.333333 339.2a53.333333 53.333333 0 1 0 0 106.666667h341.333334a53.333333 53.333333 0 0 0 0-106.666667H341.333333zM458.666667 563.2a53.333333 53.333333 0 1 0 106.666666 0v-341.333333a53.333333 53.333333 0 0 0-106.666666 0v341.333333z"  horiz-adv-x="1024" />

    
    <glyph glyph-name="dianji5" unicode="&#58882;" d="M326.109 890.881c-59.855 0-109.17-49.305-109.17-109.165V351.86l-23.87 25.031-9.096 7.975c-42.138 41.95-110.26 41.95-152.399 0-41.949-42.138-41.949-110.26 0-152.399v-1.126l297.954-294.534 2.263-1.127 1.126-2.293a302.249 302.249 0 0 1 181.945-61.385h62.589a297.304 297.304 0 0 1 297.913 297.954v284.26c0 59.856-49.341 109.171-109.17 109.171-15.495 0-29.833-4.259-43.224-10.227-11.937 47.308-54.987 83.002-105.746 83.002-27.872 0-53.456-10.913-72.78-28.425a108.602 108.602 0 0 1-72.775 28.425 107.385 107.385 0 0 1-36.39-6.839V781.716c0 59.86-49.31 109.165-109.17 109.165z m0-72.775a36.267 36.267 0 0 0 36.39-36.39v-400.275h72.78V526.99a36.262 36.262 0 0 0 36.39 36.39 36.262 36.262 0 0 0 36.385-36.39v-145.555h72.775V526.99a36.267 36.267 0 0 0 36.39 36.39 36.267 36.267 0 0 0 36.39-36.39v-145.555h76.2v72.78a36.257 36.257 0 0 0 36.385 36.385 36.283 36.283 0 0 0 36.39-36.385v-284.307c0-126.053-99.086-225.144-225.18-225.144h-62.516c-53.308 0-99.378 19.037-137.621 47.78L82.732 283.66c-16.196 16.191-16.196 33.841 0 50.032 16.232 16.196 33.841 16.196 50.032 0l156.95-156.94V781.717a36.277 36.277 0 0 0 36.395 36.39z m0 0"  horiz-adv-x="1024" />

    
    <glyph glyph-name="dianjiqianwang" unicode="&#59007;" d="M829.1 417.8c-16.3 13.5-38.1 21.3-59.7 21.3-4.3 0-14.6-1.1-26.3-3.8-6.9 40-45.6 70.6-91.2 70.6-18.4 0-36.6-5.1-51.7-14.4-13.7 29.2-43.7 47.8-78.5 47.8h-0.4c-19.9 0-39.3-6.2-54.7-17.3l-3.2 81.5c43.8 29.4 69.8 75.8 69.8 124.9C533.1 814.2 475 896 356 896 243 896 187.5 814.2 187.5 728.3c0-56.8 34.2-108.7 89.6-136.1l5.5-228.1c-9.7-5-24.2-13.8-42.5-28.7-69.2-56.4-92.1-192.7-14.3-297.9 85.7-116 186.1-165.5 335.7-165.5 159.5 0 212.9 71.9 253.9 145.5 39.4 70.6 39.8 338 39.8 349.4 0 18.6-9.5 37.2-26.1 50.9z m-557-115.7c3.7 3 7.7 6.1 11.7 9l2.5-105.9c0.1-5.8 2.6-11.1 7-15.2 4.7-4.5 11.2-7.3 17.6-6.5 6.7 0.1 13.1 2.8 17.6 7.4 4 4.2 6.2 9.6 6.1 15.2l-12.2 511.1c0 26.2 18.1 44.5 44 44.5 26.3 0 44-18.1 44.1-45.3L422.9 405c0.5-11.5 10.2-20.6 22.6-21.4 12.5-0.1 23.1 7.2 25.3 18.4l9.4 50c0.2 1.2 0.4 2.6 0.4 3.9 0 22.2 17.6 38.9 41 38.9 26.3 0 38-19.5 38-38.9v-33.4c0-12.2 10.8-22.2 24.1-22.3 13.3 0 24.1 10 24.2 22.3 0 21.5 19.7 38.9 44 38.9 24.2 0 44-17.5 44-38.9v-72.3C696 338 706.8 328 720 328h0.1c13.2 0 24.1 10 24.1 22.2v38.7c7.3 2.7 18.5 5.8 25.2 5.8 19 0 37.5-13.8 37.5-27.8 0-103.3-9.4-283.9-34.5-329-37-66.4-78.4-121.4-210.9-121.4-133.5 0-219.2 42.3-295.8 146-44.1 59.6-63.5 182.6 6.4 239.6z"  horiz-adv-x="1024" />

    
    <glyph glyph-name="tianjia" unicode="&#58883;" d="M908.8 590.4c-5.4 10.5-16.3 17.8-28.9 17.8-17.8 0-32.2-14.4-32.2-32.1 0-6 1.7-11.7 4.6-16.5l-0.1-0.1c26.9-52.4 42.1-111.8 42.1-174.7 0-211.6-171.6-383.2-383.2-383.2S127.8 173.20000000000005 127.8 384.8 299.4 767.9 511 767.9c62.5 0 121.5-15 173.6-41.5l0.2 0.4c4.6-2.6 10-4.1 15.7-4.1 17.8 0 32.2 14.4 32.2 32.1 0 13.1-7.9 24.4-19.3 29.4C652.6 815.1 583.9 832.5 511 832.5 263.7 832.5 63.2 632 63.2 384.8S263.7-62.89999999999998 511-62.89999999999998s447.7 200.4 447.7 447.7c0 74.1-18 144-49.9 205.6zM770.7 676.3a32.2 32.099999999999994 0 1 1 64.4 0 32.2 32.099999999999994 0 1 1-64.4 0ZM512.4 191.89999999999998c17.5 0 31.9 14.3 31.9 31.9V351.70000000000005h127.8c17.5 0 31.9 14.3 31.9 31.9 0 17.5-14.3 31.9-31.9 31.9H544.3V543.4c0 17.5-14.3 31.9-31.9 31.9-17.5 0-31.9-14.3-31.9-31.9v-127.9h-128c-17.5 0-31.9-14.3-31.9-31.9 0-17.6 14.4-31.9 31.9-31.9h128v-127.9c0-17.5 14.3-31.9 31.9-31.9z"  horiz-adv-x="1024" />

    
    <glyph glyph-name="zongshu" unicode="&#58925;" d="M518.8 355.3m-450 0a450 450 0 1 1 900 0 450 450 0 1 1-900 0ZM495.4 569.1h-0.9c-129.8 0-235.1-105.3-235.1-235.1s105.3-235.1 235.1-235.1c129.6 0 234.7 104.8 235.1 234.3H495.4V569.1zM543.1 611.7h-1v-234.4h236.1c-0.4 129.5-105.5 234.4-235.1 234.4z"  horiz-adv-x="1024" />

    


  </font>
</defs>
</svg>
